<svg xmlns="http://www.w3.org/2000/svg" viewBox="0 0 24 24" fill="currentColor">
  <path d="M12 9C10.3431 9 9 10.3431 9 12C9 13.6569 10.3431 15 12 15C13.6569 15 15 13.6569 15 12C15 10.3431 13.6569 9 12 9Z"/>
  <path d="M2 9C2 7.89543 2.89543 7 4 7H6L7 5C7 3.89543 7.89543 3 9 3H15C16.1046 3 17 3.89543 17 5L18 7H20C21.1046 7 22 7.89543 22 9V18C22 19.1046 21.1046 20 20 20H4C2.89543 20 2 19.1046 2 18V9ZM12 17C9.23858 17 7 14.7614 7 12C7 9.23858 9.23858 7 12 7C14.7614 7 17 9.23858 17 12C17 14.7614 14.7614 17 12 17Z"/>
  <circle cx="18" cy="9" r="1" fill="currentColor"/>
</svg>

