<svg xmlns="http://www.w3.org/2000/svg" viewBox="0 0 24 24" fill="currentColor">
  <path d="M9 3C8.44772 3 8 3.44772 8 4C8 4.55228 8.44772 5 9 5H15C15.5523 5 16 4.55228 16 4C16 3.44772 15.5523 3 15 3H9ZM4 7C2.89543 7 2 7.89543 2 9V18C2 19.1046 2.89543 20 4 20H20C21.1046 20 22 19.1046 22 18V9C22 7.89543 21.1046 7 20 7H4ZM12 10C14.2091 10 16 11.7909 16 14C16 16.2091 14.2091 18 12 18C9.79086 18 8 16.2091 8 14C8 11.7909 9.79086 10 12 10ZM12 12C10.8954 12 10 12.8954 10 14C10 15.1046 10.8954 16 12 16C13.1046 16 14 15.1046 14 14C14 12.8954 13.1046 12 12 12Z"/>
</svg>

