<svg xmlns="http://www.w3.org/2000/svg" viewBox="0 0 24 24" fill="currentColor">
  <path d="M5 3C3.89543 3 3 3.89543 3 5V19C3 20.1046 3.89543 21 5 21H19C20.1046 21 21 20.1046 21 19V5C21 3.89543 20.1046 3 19 3H5ZM9 10C9.55228 10 10 9.55228 10 9C10 8.44772 9.55228 8 9 8C8.44772 8 8 8.44772 8 9C8 9.55228 8.44772 10 9 10ZM5 16.5858L8.29289 13.2929C8.68342 12.9024 9.31658 12.9024 9.70711 13.2929L12.5 16.0858L15.2929 13.2929C15.6834 12.9024 16.3166 12.9024 16.7071 13.2929L19 15.5858V5H5V16.5858Z"/>
</svg>

