<svg xmlns="http://www.w3.org/2000/svg" viewBox="0 0 24 24" fill="currentColor">
  <path d="M12 2C11.4477 2 11 2.44772 11 3V4.05493C7.0547 4.5207 4 7.89992 4 12V13H3C2.44772 13 2 13.4477 2 14C2 14.5523 2.44772 15 3 15H4V16C4 18.7614 6.23858 21 9 21H9.34141L9.17071 21.1707C8.39572 21.9457 8.72156 23.245 9.79289 23.6036L11.1464 24C11.3618 24.0583 11.5846 23.9935 11.7354 23.8285L12 23.5355L12.2646 23.8285C12.4154 23.9935 12.6382 24.0583 12.8536 24L14.2071 23.6036C15.2784 23.245 15.6043 21.9457 14.8293 21.1707L14.6586 21H15C17.7614 21 20 18.7614 20 16V15H21C21.5523 15 22 14.5523 22 14C22 13.4477 21.5523 13 21 13H20V12C20 7.89992 16.9453 4.5207 13 4.05493V3C13 2.44772 12.5523 2 12 2ZM9 9C9.55228 9 10 9.44772 10 10C10 10.5523 9.55228 11 9 11C8.44772 11 8 10.5523 8 10C8 9.44772 8.44772 9 9 9ZM15 9C15.5523 9 16 9.44772 16 10C16 10.5523 15.5523 11 15 11C14.4477 11 14 10.5523 14 10C14 9.44772 14.4477 9 15 9ZM9 14H15C15.5523 14 16 14.4477 16 15C16 16.1046 15.1046 17 14 17H10C8.89543 17 8 16.1046 8 15C8 14.4477 8.44772 14 9 14Z"/>
</svg>

